<?xml version="1.0" encoding="UTF-8"?><svg id="Layer_1" xmlns="http://www.w3.org/2000/svg" xmlns:xlink="http://www.w3.org/1999/xlink" viewBox="0 0 197.1 101.42"><defs><style>.cls-1{fill:url(#linear-gradient-2);}.cls-2{fill:#fff;}.cls-3{fill:rgba(1,1,1,0);stroke:#fff;stroke-linecap:round;stroke-miterlimit:13.8;stroke-width:6px;}.cls-4{opacity:.84;}.cls-5{fill:#5e3b97;opacity:.11;}.cls-6,.cls-7,.cls-8,.cls-9,.cls-10{stroke:#010101;stroke-miterlimit:10;}.cls-6,.cls-11{fill:#010101;}.cls-7{fill:#4e4e4e;}.cls-8{fill:#ab8560;}.cls-9{fill:#4a4a4a;stroke-width:2px;}.cls-10{fill:#9dbb80;}.cls-12{fill:url(#linear-gradient);}</style><linearGradient id="linear-gradient" x1="98.19" y1="79.74" x2="98.19" y2="101.42" gradientUnits="userSpaceOnUse"><stop offset="0" stop-color="#5e5f5f"/><stop offset=".53" stop-color="#454545"/><stop offset="1" stop-color="#2a2a2a"/></linearGradient><linearGradient id="linear-gradient-2" x1="98.19" y1="36.64" x2="98.19" y2="55.9" gradientUnits="userSpaceOnUse"><stop offset="0" stop-color="#2a2a2a"/><stop offset=".5" stop-color="#454545"/><stop offset="1" stop-color="#5e5f5f"/></linearGradient></defs><path class="cls-10" d="m68.42,27.53c-.29-.51-1.04-2.04-2.64-3.59-2.07-2-3.61-2.14-3.56-2.77.11-1.36,7.35-2.56,14.64-1.42,3.19.5,3.79,1.05,6.49,1.3,2.32.21,2.68-1.45,5.39-4.09,1.96-1.91,5.03-2.1,7.36-1.77.29.04,1.17.02,2.39-.07,1.3-.1,2.13-.25,2.54-.31,2.06-.29,4.77.59,7.06,1.81,1.54.82,1.88,1.28,3.49,3.22.42.5,1.2,1.41,1.87,1.27,1.67-.35,4.96-.9,7.06-1.1,6.28-.6,14.24-.92,14.98,1.02.88,2.29-7.38,7.55-11.04,9.88-2.46,1.57-5.54,3.53-10.03,5.37-6.84,2.81-14.81,3.55-24.75,1.69-11.46-2.15-19.59-7.48-21.25-10.43Z"/><path class="cls-11" d="m99.78,30.86c-.8-.03-1.47.18-2.27.21-.49-.05-.96-.55-.92-1.14.02-.59.56-1.11,1.19-1.11.79.02,1.49.07,2.27.29.93.37.67,1.77-.27,1.75h0Zm0,0c.83,0,.94-1.23.14-1.27-.66.11-1.45.24-2.14.23-.12,0-.27.07-.34.22-.08.15-.03.41.2.55.64.21,1.45.24,2.14.27h0Z"/><path class="cls-11" d="m115.32,28.73c-.99-.73-1.18-1.87-.26-2.76.5-.57,1-1.04,1.09-1.77.06-.32-.11-.27-.29-.41-.2-.14-.21-.49,0-.65,1.64-1.19,3.65-1.77,5.65-1.97,2.09-.09,3.96-.48,6.06-.61,2.29-.09,4.56.08,6.82.39-.82.68-1.66,1.36-2.5,2-.67.52-1.33,1.03-2.01,1.53.58-.61,1.18-1.2,1.78-1.79.59-.6,1.2-1.18,1.81-1.76l.17.52c-3.56-.23-7,.14-10.54.58-1.99.1-3.95.3-5.78,1.11-.34.15-.7.34-1.02.52.05-.06.09-.12.07-.26-.05-.14-.07-.13-.09-.15,0,0,.08.05.08.05,1.13.84-.29,2.38-1.02,2.94-.93.67-.78,1.71-.03,2.47h0Z"/><path class="cls-11" d="m82.83,28.73c.74-.77.9-1.79-.03-2.47-.73-.56-2.16-2.11-1.02-2.94,0,0,.09-.06.08-.05-.09.04-.13.3-.05.38-.59-.31-1.58-.78-2.37-.99-1.92-.6-3.94-.51-5.93-.77-3.02-.51-5.96-.55-9.01-.43,0,0,.17-.52.17-.52,1.23,1.15,2.42,2.34,3.59,3.55-.68-.5-1.35-1.02-2.01-1.53-.85-.64-1.68-1.33-2.5-2,2.26-.31,4.53-.47,6.82-.39,2.1.14,3.97.52,6.06.61,2,.2,4.01.78,5.65,1.97.21.15.22.51,0,.65-.04.03-.12.08-.16.1-.3.13-.03.7.07.94.9,1.39,2.53,2.3.63,3.9h0Z"/><path class="cls-11" d="m98.11,22.29c-1.82-3.74-6.05-5.02-9.58-2.79,2.8-3.8,9.22-1.89,9.58,2.79h0Z"/><path class="cls-6" d="m96.06,28.78c-.75,1.92-4.4,2.63-7.03,1.65-.21-.08-3.7-1.43-3.69-4.04,0-.86.38-1.65.97-2.31.92-1.02,2.35-1.72,3.67-1.82.06,0,.13,0,.19-.01,3.58-.13,6.79,4.22,5.89,6.54Z"/><path class="cls-2" d="m91.27,24.44c0,1.38-1.12,2.49-2.5,2.49s-2.49-1.12-2.49-2.49c0-.12,0-.24.03-.36.92-1.02,2.35-1.72,3.67-1.82.77.43,1.29,1.24,1.29,2.18Z"/><circle class="cls-2" cx="92.99" cy="28.73" r="1.02"/><path class="cls-11" d="m99.73,22.19c.36-4.68,6.78-6.6,9.58-2.79-3.53-2.23-7.76-.95-9.58,2.79h0Z"/><path class="cls-6" d="m101.77,28.67c.75,1.92,4.4,2.63,7.03,1.65.21-.08,3.7-1.43,3.69-4.04,0-.86-.38-1.65-.97-2.31-.92-1.02-2.35-1.72-3.67-1.82-.06,0-.13,0-.19-.01-3.58-.13-6.79,4.22-5.89,6.54Z"/><path class="cls-2" d="m106.56,24.33c0,1.38,1.12,2.49,2.5,2.49s2.49-1.12,2.49-2.49c0-.12,0-.24-.03-.36-.92-1.02-2.35-1.72-3.67-1.82-.77.43-1.29,1.24-1.29,2.18Z"/><circle class="cls-2" cx="104.84" cy="28.62" r="1.02"/><path class="cls-11" d="m96.26,33.07c1.95.11,3.33.13,5.29.1-1.38,1.39-3.96,1.34-5.29-.1h0Z"/><path class="cls-8" d="m79.34,33.32c-1.82,1.75-1.6,5.09-.7,7.18,4.14,9.6,29.38,8.39,30.38,4.34,1.07-4.3-23.82-17.19-29.68-11.52Z"/><path class="cls-8" d="m115.17,33.27c1.35,1.06,2.07,3.01,1.8,4.69-.79,4.88-10.12,8.11-16.96,6.14-2.42-.7-5.9-2.45-5.79-4.24.05-.86.93-1.64,6.83-3.84,11.69-4.35,13.5-3.23,14.12-2.74Z"/><circle class="cls-5" cx="98.19" cy="43.35" r="43.35"/><g class="cls-4"><path class="cls-3" d="m58.3,34.14c10.48-19.22,14.96-23.63,31.72-30.2"/></g><polygon class="cls-12" points="195.74 79.74 .64 79.74 55.38 101.42 141.54 101.42 195.74 79.74"/><polygon class="cls-1" points="195.74 58.12 .64 58.12 55.38 36.44 141.54 36.44 195.74 58.12"/><rect class="cls-9" x="1" y="58.12" width="195.1" height="21.68"/><rect class="cls-7" x="1" y="58.12" width="21.68" height="21.68"/><rect class="cls-7" x="35.61" y="58.12" width="21.68" height="21.68"/><rect class="cls-7" x="70.22" y="58.12" width="21.68" height="21.68"/><rect class="cls-7" x="104.84" y="58.12" width="21.68" height="21.68"/><rect class="cls-7" x="139.45" y="58.12" width="21.68" height="21.68"/><rect class="cls-7" x="174.06" y="58.12" width="21.68" height="21.68"/></svg>