<svg xmlns="http://www.w3.org/2000/svg" viewBox="0 0 480.33002 270"><defs><style>.a{fill:#3e7ae5;}.b{fill:#2559e1;}.c{fill:#336ae5;}.d{fill:#445a1c;}.e{fill:#70961d;}.f{fill:#334724;}.g{fill:#182303;}.h{fill:#2d3f0b;}</style></defs><rect class="a" y="72.21997" width="270.77778" height="77.55781"/><polygon class="b" points="480 0 480 84.57 334.68 81.33 0 1.67 0 0 480 0"/><polygon class="c" points="480 81.333 480 174.14 235.7 136.08 235.64 136.07 228.56 134.96 194.58 129.67 0 74 0 1.65 337 81.33 480 81.333"/><polygon class="d" points="480 182.14 480 220.39 0 220.39 0 167.62 475.6 184 480 182.14"/><polygon class="d" points="480.33 182 480 182.14 480 181.95 480.33 182"/><polygon class="e" points="480 181.95 480.33 182 480 182.14 480 207.87 478.79 207.89 299.88 211.11 295.51 210.01 295.44 209.99 208.39 188 54.06 182 0 168.7 0 135.55 63.21 129.67 162.73 129.67 164.94 129.88 164.96 129.88 175.67 130.89 228.56 139.68 390.08 166.52 395.32 167.39 480 181.46 480 181.95"/><polygon class="f" points="480 157.79 480 181.57 393.6 167.39 388.3 166.52 388.05 166.48 228.56 140.32 164.96 129.88 164.94 129.88 163.67 129.67 177.32 130.88 177.36 130.89 228.56 135.44 235.64 136.07 235.7 136.08 480 157.79"/><polygon class="g" points="297 209.99 480 207.76 480 207.92 472.06 208.17 471.55 208.19 462.72 208.48 462.71 208.48 95.73 220.39 0 223.5 0 213.61 295.51 210.01 297 209.99"/><polygon class="h" points="480 207.98 480 270 0 270 0 223.38 92.15 220.39 459.35 208.48 471.55 208.19 472.06 208.17 480 207.98"/></svg>