<?xml version="1.0" encoding="UTF-8"?><svg xmlns="http://www.w3.org/2000/svg" viewBox="0 0 91.52 105.34"><defs><style>.cls-1{fill:#664329;}.cls-1,.cls-2,.cls-3,.cls-4,.cls-5{stroke:#000;stroke-miterlimit:10;stroke-width:.25px;}.cls-2{fill:tan;}.cls-6{fill:#987554;}.cls-3{fill:#b99976;}.cls-4{fill:#c49a6c;}.cls-5{fill:#e5d3b3;}</style></defs><g id="Layer_1"><polygon class="cls-1" points="91.1 78.76 45.76 52.58 45.76 .22 91.26 26.3 91.1 78.76 91.1 78.76"/><polygon class="cls-5" points="45.76 105.12 91.1 78.76 91.26 26.3 45.76 52.58 45.76 105.12 45.76 105.12"/><polygon class="cls-3" points="45.76 52.58 .41 78.76 .25 26.3 45.76 .22 45.76 52.58 45.76 52.58"/><polygon class="cls-6" points="45.76 .22 .41 78.76 45.64 78.76 45.76 .22"/><polygon class="cls-2" points=".41 78.76 45.76 105.12 45.76 52.58 .25 26.3 .41 78.76 .41 78.76"/></g><g id="right"><polygon class="cls-4" points="68.51 13.26 45.76 .22 23 13.26 68.51 39.44 91.26 26.3 68.51 13.26"/></g><g id="left"><polygon class="cls-4" points=".25 26.3 23 39.44 45.76 52.58 68.51 39.44 23 13.26 .25 26.3"/></g><g id="bottom"><polygon class="cls-4" points="45.76 .22 23 13.26 .25 26.3 23 39.44 68.51 13.26 45.76 .22"/></g><g id="top"><polygon class="cls-4" points="68.51 13.26 23 39.44 45.76 52.58 68.51 39.44 91.26 26.3 68.51 13.26"/></g></svg>