<?xml version="1.0" encoding="UTF-8"?><svg id="Layer_1" xmlns="http://www.w3.org/2000/svg" viewBox="0 0 123.71 174.62"><defs><style>.cls-1{fill:#d1d3d4;}.cls-1,.cls-2,.cls-3,.cls-4,.cls-5,.cls-6{stroke:#000;stroke-miterlimit:10;}.cls-2{fill:none;}.cls-3{fill:#e6e7e8;}.cls-4{fill:#1c75bc;}.cls-5{fill:#2b3990;}.cls-6{fill:#fff;}</style></defs><polygon class="cls-2" points="119.91 162.35 19.5 147.82 6.04 157.88 102.73 171.91 119.91 162.35 119.91 162.35"/><path class="cls-2" d="m19.35,3.14l.14,144.68,100.41,14.53.16-145.16C86.5,12.51,52.93,7.82,19.35,3.14Z"/><path class="cls-5" d="m17.84,151.94l-.2-149.55c0-1.15,1.01-2.03,2.15-1.87l99.37,13.9c2.32.33,4.05,2.31,4.05,4.66l-.11,142.7c0,2.87-2.54,5.06-5.38,4.65l-99.88-14.5Z"/><path class="cls-5" d="m2.89,7.8L15.98.69c1.25-.6,2.71.31,2.71,1.7l-1.52,154.59-12.2,2.47c-2.02-.29-3.51-2.02-3.51-4.06l.09-145.47c0-.91.52-1.74,1.34-2.13Z"/><polygon class="cls-1" points="120.08 17.19 119.91 162.35 102.73 171.91 102.84 26.43 120.08 17.19 120.08 17.19"/><path class="cls-3" d="m19.35,3.14l100.72,14.05-17.05,9.15c-.12.06-.26.09-.39.07L3.93,12.6c-.62-.09-.77-.92-.21-1.21L19.35,3.14h0Z"/><polygon class="cls-6" points="3.38 12.06 102.73 26.49 102.73 171.91 3.38 156.47 3.38 12.06"/><path class="cls-4" d="m.7,154.59L.5,11.88c0-1.43,1.27-2.54,2.69-2.34l98.69,13.81c2.41.34,4.2,2.4,4.2,4.83l-.11,141.08c0,2.97-2.64,5.24-5.57,4.82l-94.73-13.75c-2.85-.41-4.96-2.85-4.97-5.73Z"/></svg>