<?xml version="1.0" encoding="UTF-8"?><svg id="Layer_1" xmlns="http://www.w3.org/2000/svg" viewBox="0 0 111.63 164.65"><defs><style>.cls-1{fill:#e5bda1;}.cls-2{fill:#fff;}.cls-3{fill:#fbd9be;}.cls-4{fill:#eac9b1;}.cls-5{fill:#412312;}.cls-6{fill:#2baae2;}.cls-7{fill:#010101;}</style></defs><ellipse class="cls-4" cx="13.14" cy="93.15" rx="13.14" ry="17.94"/><ellipse class="cls-4" cx="98.48" cy="93.15" rx="13.14" ry="17.94"/><path class="cls-3" d="m103.29,79.25c0,43.77-21.19,79.25-47.33,79.25S9.78,124.93,8.67,82.82c-.03-1.18-.05-2.37-.05-3.57,0-1.89.04-3.77.12-5.62.07-1.77.18-3.52.32-5.25C12.22,29.81,31.96.07,55.87,0h.09c.23,0,.46,0,.69.01,1.23.03,2.46.14,3.67.32.17.02.34.05.51.08,20.67,3.54,37.4,29.35,41.5,62.87,0,.03.01.05.01.07.62,5.14.95,10.45.95,15.9Z"/><path class="cls-5" d="m83.32,143.01c0,1.39-.14,2.77-.4,4.1-7.41,11-16.68,17.54-26.75,17.54s-19.84-6.91-27.35-18.46c-.15-1.04-.24-2.1-.24-3.18,0-5.18,1.85-9.97,5.02-13.89,2.01,3.56,5.01,7.44,9.04,7.83,5.14.5,7.12-5.14,13.11-5.17,6.16-.03,8.24,5.91,13.5,5.36,2.66-.28,5.8-2.17,9.05-8.02,3.48,6.91,5.01,12.4,5.01,13.89Z"/><path class="cls-5" d="m104.9,76.22c-.08-1.83-.19-3.64-.34-5.43C101.31,31.03,80.47.36,55.86.04h0c-.07,0-.14,0-.22,0-.03,0-.05,0-.08,0h0C30.96.36,10.69,31.03,7.43,70.78c-.15,1.79-.26,3.6-.34,5.43-.08,1.92-.12,3.86-.12,5.82,0,1.24.02,2.47.05,3.69.64.11,1.53.13,2.73.05,2.55-.17-2.36-15.04,5.03-27.61,2.21-3.74,4.76-5.93,6.02-11.25,1.7-7.17-1.54-9.12,0-14.38,2.52-8.66,14.11-13.14,21.19-14.39,1.89-.34,2.39-.24,13.08.24h0s0,0,0,0c.17,0,.34.02.52.02v-.05c10.73-.48,12.51-.55,14.4-.22,7.07,1.25,18.66,5.73,21.19,14.39,1.54,5.26-1.7,7.21,0,14.38,1.27,5.32,3.81,7.5,6.02,11.25,7.39,12.57,2.48,27.44,5.03,27.61,1.2.08,2.09.06,2.73-.05.04-1.22.05-2.45.05-3.69,0-1.96-.04-3.9-.12-5.82Z"/><path class="cls-5" d="m105.29,79.18s0-.02,0-.05c0,.03,0,.05,0,.05Z"/><path class="cls-5" d="m55.23,105.31c-1.39,3.13-6.09.52-10.87,4.12-1.49,1.12-.95,1.31-7.13,8.63-2.64,3.13-3.07,3.49-3.39,3.33-1.32-.62-.91-9.89,4.1-15.89,4.91-5.87,13.83-8.12,16.58-4.9.99,1.16,1.37,3.23.71,4.71Z"/><path class="cls-5" d="m56.76,105.31c1.39,3.13,6.09.52,10.87,4.12,1.49,1.12.95,1.31,7.13,8.63,2.64,3.13,3.07,3.49,3.39,3.33,1.32-.62.91-9.89-4.1-15.89-4.91-5.87-13.83-8.12-16.58-4.9-.99,1.16-1.37,3.23-.71,4.71Z"/><rect class="cls-4" x="48.65" y="61.36" width="14.62" height="30.31" rx="7.31" ry="7.31"/><path class="cls-1" d="m68.5,121.43c-3.57.6-7.85,1.06-12.71,1.05-4.71-.01-8.89-.46-12.38-1.05-.04,0-.25,0-.42-.18-.11-.11-.18-.26-.18-.42v-2.33c0-.33.27-.6.6-.6,3.61.49,7.75.84,12.33.85,4.76.01,9.04-.35,12.75-.85.04,0,.25,0,.42.18.11.11.18.26.18.42v2.33c0,.33-.27.6-.6.6Z"/><circle class="cls-2" cx="32.26" cy="65.77" r="9.96"/><circle class="cls-6" cx="32.26" cy="65.77" r="3.73"/><circle class="cls-2" cx="78.91" cy="65.77" r="9.96"/><circle class="cls-6" cx="78.91" cy="65.77" r="3.73"/><path class="cls-7" d="m48.53,56.88c-8.74-4.87-22.78-5.34-30.47,0-1.8,1.25-1.83,3.63-2.07,4.99v7.82c.25,1.36.35,3.64,2.07,4.99,8.03,6.27,22.75,6.3,30.47,0,1.7-1.38,1.83-3.63,2.07-4.99v-7.82c-.25-1.36-.16-3.92-2.07-4.99Zm.31,12.65c-.02.15-.05.3-.07.46-.19,1.19-.4,2.54-1.35,3.31-3.37,2.74-8.46,4.32-13.99,4.32s-10.75-1.58-14.28-4.34c-.93-.73-1.14-2.06-1.31-3.24-.03-.18-.05-.35-.08-.51v-7.51c.03-.19.06-.4.09-.62.16-1.15.34-2.46,1.22-3.07,3.27-2.27,8.05-3.52,13.46-3.52s11.04,1.31,15.15,3.61c.73.4.91,1.47,1.07,2.82.03.28.06.54.1.77v7.51Z"/><path class="cls-7" d="m17.42,57.44l-1.15,6.05-9.17,9.93c.08-1.83.19-3.64.34-5.43l9.99-10.55Z"/><path class="cls-7" d="m61.28,61.87v7.82c.25,1.36.38,3.6,2.07,4.99,7.73,6.3,22.44,6.27,30.47,0,1.73-1.35,1.83-3.63,2.07-4.99v-7.82c-.25-1.36-.27-3.74-2.07-4.99-7.69-5.34-21.74-4.87-30.47,0-1.91,1.07-1.83,3.63-2.07,4.99Zm1.77.15c.04-.23.07-.5.1-.77.16-1.35.34-2.42,1.07-2.82,4.11-2.29,9.63-3.61,15.15-3.61s10.19,1.25,13.46,3.52c.88.61,1.06,1.92,1.22,3.07.03.22.06.43.09.62v7.51c-.03.16-.05.33-.08.51-.18,1.18-.38,2.51-1.31,3.24-3.53,2.76-8.74,4.34-14.28,4.34s-10.62-1.57-13.99-4.32c-.95-.77-1.16-2.12-1.35-3.31-.02-.16-.05-.31-.07-.46v-7.51Z"/><path class="cls-7" d="m94.46,57.44l1.15,6.05,9.17,9.93c-.08-1.83-.19-3.64-.34-5.43l-9.99-10.55Z"/><path class="cls-7" d="m61.94,61.94c-1.52-.44-3.61-.89-6.13-.93-2.66-.05-4.87.37-6.45.79-.28-1.64-.55-3.28-.83-4.92,1.98.35,4.33.62,6.98.65,3.02.03,5.67-.26,7.84-.65-.47,1.69-.94,3.37-1.41,5.06Z"/></svg>